<?xml version="1.0" encoding="utf-8" standalone="no"?>
<!DOCTYPE svg PUBLIC "-//W3C//DTD SVG 1.1//EN"
  "http://www.w3.org/Graphics/SVG/1.1/DTD/svg11.dtd">
<!-- Created with matplotlib (http://matplotlib.org/) -->
<svg height="432pt" version="1.1" viewBox="0 0 432 432" width="432pt" xmlns="http://www.w3.org/2000/svg" xmlns:xlink="http://www.w3.org/1999/xlink">
 <defs>
  <style type="text/css">
*{stroke-linecap:butt;stroke-linejoin:round;}
  </style>
 </defs>
 <g id="figure_1">
  <g id="patch_1">
   <path d="M 0 432 
L 432 432 
L 432 0 
L 0 0 
z
" style="fill:none;"/>
  </g>
  <g id="axes_1">
   <g id="line2d_1">
    <path clip-path="url(#p200bbe15bb)" d="M 39.272727 392.727273 
L 41.04 392.587301 
L 42.807273 392.172999 
L 44.574545 391.492723 
L 46.341818 390.554743 
L 48.109091 389.367245 
L 49.876364 387.938331 
L 51.643636 386.276017 
L 53.410909 384.388234 
L 55.178182 382.282829 
L 56.945455 379.967564 
L 58.712727 377.450115 
L 62.247273 371.838954 
L 65.781818 365.509064 
L 69.316364 358.518807 
L 72.850909 350.92519 
L 76.385455 342.783859 
L 79.92 334.149106 
L 83.454545 325.073864 
L 88.756364 310.747534 
L 94.058182 295.714176 
L 101.127273 274.847973 
L 109.963636 247.952291 
L 127.636364 193.909091 
L 134.705455 173.028919 
L 140.007273 157.896311 
L 145.309091 143.329745 
L 150.610909 129.424275 
L 155.912727 116.268078 
L 159.447273 107.953979 
L 162.981818 100.031564 
L 166.516364 92.52187 
L 170.050909 85.444579 
L 173.585455 78.818014 
L 177.12 72.659139 
L 180.654545 66.983564 
L 184.189091 61.805539 
L 187.723636 57.13796 
L 191.258182 52.992362 
L 194.792727 49.378926 
L 198.327273 46.306473 
L 201.861818 43.782468 
L 203.629091 42.728095 
L 205.396364 41.813019 
L 207.163636 41.037791 
L 208.930909 40.402877 
L 210.698182 39.908659 
L 212.465455 39.555434 
L 214.232727 39.343415 
L 216 39.272727 
L 217.767273 39.343415 
L 219.534545 39.555434 
L 221.301818 39.908659 
L 223.069091 40.402877 
L 224.836364 41.037791 
L 226.603636 41.813019 
L 228.370909 42.728095 
L 230.138182 43.782468 
L 231.905455 44.975501 
L 235.44 47.774578 
L 238.974545 51.118541 
L 242.509091 54.999245 
L 246.043636 59.407191 
L 249.578182 64.33152 
L 253.112727 69.760016 
L 256.647273 75.679107 
L 260.181818 82.073864 
L 263.716364 88.927998 
L 267.250909 96.223865 
L 270.785455 103.942464 
L 274.32 112.063436 
L 279.621818 124.951466 
L 284.923636 138.616638 
L 290.225455 152.97306 
L 295.527273 167.927973 
L 302.596364 188.625649 
L 311.432727 215.35298 
L 332.64 280.13526 
L 339.709091 300.793745 
L 345.010909 315.609708 
L 350.312727 329.663291 
L 353.847273 338.52482 
L 357.381818 346.919564 
L 360.916364 354.793909 
L 364.450909 362.092887 
L 367.985455 368.76017 
L 371.52 374.738076 
L 375.054545 379.967564 
L 376.821818 382.282829 
L 378.589091 384.388234 
L 380.356364 386.276017 
L 382.123636 387.938331 
L 383.890909 389.367245 
L 385.658182 390.554743 
L 387.425455 391.492723 
L 389.192727 392.172999 
L 390.96 392.587301 
L 392.727273 392.727273 
L 392.727273 392.727273 
" style="fill:none;stroke:#008000;stroke-linecap:square;stroke-width:1.5;"/>
   </g>
   <g id="line2d_2">
    <path clip-path="url(#p200bbe15bb)" d="M 39.272727 392.727273 
L 46.341818 370.558604 
L 53.410909 349.294778 
L 60.48 328.935796 
L 65.781818 314.260364 
L 71.083636 300.093905 
L 76.385455 286.436422 
L 81.687273 273.287913 
L 86.989091 260.648378 
L 92.290909 248.517818 
L 97.592727 236.896233 
L 102.894545 225.783622 
L 108.196364 215.179985 
L 113.498182 205.085324 
L 118.8 195.499636 
L 124.101818 186.422924 
L 129.403636 177.855185 
L 134.705455 169.796422 
L 140.007273 162.246633 
L 145.309091 155.205818 
L 150.610909 148.673978 
L 155.912727 142.651113 
L 159.447273 138.918633 
L 162.981818 135.412364 
L 166.516364 132.132305 
L 170.050909 129.078458 
L 173.585455 126.250822 
L 177.12 123.649396 
L 180.654545 121.274182 
L 184.189091 119.125178 
L 187.723636 117.202385 
L 191.258182 115.505804 
L 194.792727 114.035433 
L 198.327273 112.791273 
L 201.861818 111.773324 
L 205.396364 110.981585 
L 208.930909 110.416058 
L 212.465455 110.076742 
L 216 109.963636 
L 219.534545 110.076742 
L 223.069091 110.416058 
L 226.603636 110.981585 
L 230.138182 111.773324 
L 233.672727 112.791273 
L 237.207273 114.035433 
L 240.741818 115.505804 
L 244.276364 117.202385 
L 247.810909 119.125178 
L 251.345455 121.274182 
L 254.88 123.649396 
L 258.414545 126.250822 
L 261.949091 129.078458 
L 265.483636 132.132305 
L 269.018182 135.412364 
L 272.552727 138.918633 
L 276.087273 142.651113 
L 279.621818 146.609804 
L 284.923636 152.971985 
L 290.225455 159.843142 
L 295.527273 167.223273 
L 300.829091 175.112378 
L 306.130909 183.510458 
L 311.432727 192.417513 
L 316.734545 201.833542 
L 322.036364 211.758545 
L 327.338182 222.192524 
L 332.64 233.135476 
L 337.941818 244.587404 
L 343.243636 256.548305 
L 348.545455 269.018182 
L 353.847273 281.997033 
L 359.149091 295.484858 
L 364.450909 309.481658 
L 369.752727 323.987433 
L 375.054545 339.002182 
L 382.123636 359.813585 
L 389.192727 381.529833 
L 392.727273 392.727273 
L 392.727273 392.727273 
" style="fill:none;stroke:#ff0000;stroke-linecap:square;stroke-width:1.5;"/>
   </g>
   <g id="line2d_3">
    <path clip-path="url(#p200bbe15bb)" d="M 39.272727 204.218182 
L 392.727273 204.218182 
L 392.727273 204.218182 
" style="fill:none;stroke:#0000ff;stroke-linecap:square;stroke-width:1.5;"/>
   </g>
   <g id="line2d_4">
    <path clip-path="url(#p200bbe15bb)" d="M 21.6 392.727273 
L 410.4 392.727273 
" style="fill:none;stroke:#000000;stroke-linecap:square;stroke-width:1.5;"/>
   </g>
   <g id="line2d_5">
    <path clip-path="url(#p200bbe15bb)" d="M 39.272727 410.4 
L 39.272727 21.6 
" style="fill:none;stroke:#000000;stroke-linecap:square;stroke-width:1.5;"/>
   </g>
   <g id="legend_1">
    <g id="patch_2">
     <path d="M 344.410938 73.634375 
L 403.4 73.634375 
Q 405.4 73.634375 405.4 71.634375 
L 405.4 28.6 
Q 405.4 26.6 403.4 26.6 
L 344.410938 26.6 
Q 342.410938 26.6 342.410938 28.6 
L 342.410938 71.634375 
Q 342.410938 73.634375 344.410938 73.634375 
z
" style="fill:#ffffff;opacity:0.8;stroke:#cccccc;stroke-linejoin:miter;"/>
    </g>
    <g id="line2d_6">
     <path d="M 346.410938 34.698437 
L 366.410938 34.698437 
" style="fill:none;stroke:#008000;stroke-linecap:square;stroke-width:1.5;"/>
    </g>
    <g id="line2d_7"/>
    <g id="text_1">
     <!-- ao=6 -->
     <defs>
      <path d="M 34.28125 27.484375 
Q 23.390625 27.484375 19.1875 25 
Q 14.984375 22.515625 14.984375 16.5 
Q 14.984375 11.71875 18.140625 8.90625 
Q 21.296875 6.109375 26.703125 6.109375 
Q 34.1875 6.109375 38.703125 11.40625 
Q 43.21875 16.703125 43.21875 25.484375 
L 43.21875 27.484375 
z
M 52.203125 31.203125 
L 52.203125 0 
L 43.21875 0 
L 43.21875 8.296875 
Q 40.140625 3.328125 35.546875 0.953125 
Q 30.953125 -1.421875 24.3125 -1.421875 
Q 15.921875 -1.421875 10.953125 3.296875 
Q 6 8.015625 6 15.921875 
Q 6 25.140625 12.171875 29.828125 
Q 18.359375 34.515625 30.609375 34.515625 
L 43.21875 34.515625 
L 43.21875 35.40625 
Q 43.21875 41.609375 39.140625 45 
Q 35.0625 48.390625 27.6875 48.390625 
Q 23 48.390625 18.546875 47.265625 
Q 14.109375 46.140625 10.015625 43.890625 
L 10.015625 52.203125 
Q 14.9375 54.109375 19.578125 55.046875 
Q 24.21875 56 28.609375 56 
Q 40.484375 56 46.34375 49.84375 
Q 52.203125 43.703125 52.203125 31.203125 
z
" id="DejaVuSans-61"/>
      <path d="M 30.609375 48.390625 
Q 23.390625 48.390625 19.1875 42.75 
Q 14.984375 37.109375 14.984375 27.296875 
Q 14.984375 17.484375 19.15625 11.84375 
Q 23.34375 6.203125 30.609375 6.203125 
Q 37.796875 6.203125 41.984375 11.859375 
Q 46.1875 17.53125 46.1875 27.296875 
Q 46.1875 37.015625 41.984375 42.703125 
Q 37.796875 48.390625 30.609375 48.390625 
z
M 30.609375 56 
Q 42.328125 56 49.015625 48.375 
Q 55.71875 40.765625 55.71875 27.296875 
Q 55.71875 13.875 49.015625 6.21875 
Q 42.328125 -1.421875 30.609375 -1.421875 
Q 18.84375 -1.421875 12.171875 6.21875 
Q 5.515625 13.875 5.515625 27.296875 
Q 5.515625 40.765625 12.171875 48.375 
Q 18.84375 56 30.609375 56 
z
" id="DejaVuSans-6f"/>
      <path d="M 10.59375 45.40625 
L 73.1875 45.40625 
L 73.1875 37.203125 
L 10.59375 37.203125 
z
M 10.59375 25.484375 
L 73.1875 25.484375 
L 73.1875 17.1875 
L 10.59375 17.1875 
z
" id="DejaVuSans-3d"/>
      <path d="M 33.015625 40.375 
Q 26.375 40.375 22.484375 35.828125 
Q 18.609375 31.296875 18.609375 23.390625 
Q 18.609375 15.53125 22.484375 10.953125 
Q 26.375 6.390625 33.015625 6.390625 
Q 39.65625 6.390625 43.53125 10.953125 
Q 47.40625 15.53125 47.40625 23.390625 
Q 47.40625 31.296875 43.53125 35.828125 
Q 39.65625 40.375 33.015625 40.375 
z
M 52.59375 71.296875 
L 52.59375 62.3125 
Q 48.875 64.0625 45.09375 64.984375 
Q 41.3125 65.921875 37.59375 65.921875 
Q 27.828125 65.921875 22.671875 59.328125 
Q 17.53125 52.734375 16.796875 39.40625 
Q 19.671875 43.65625 24.015625 45.921875 
Q 28.375 48.1875 33.59375 48.1875 
Q 44.578125 48.1875 50.953125 41.515625 
Q 57.328125 34.859375 57.328125 23.390625 
Q 57.328125 12.15625 50.6875 5.359375 
Q 44.046875 -1.421875 33.015625 -1.421875 
Q 20.359375 -1.421875 13.671875 8.265625 
Q 6.984375 17.96875 6.984375 36.375 
Q 6.984375 53.65625 15.1875 63.9375 
Q 23.390625 74.21875 37.203125 74.21875 
Q 40.921875 74.21875 44.703125 73.484375 
Q 48.484375 72.75 52.59375 71.296875 
z
" id="DejaVuSans-36"/>
     </defs>
     <g transform="translate(374.410938 38.198437)scale(0.1 -0.1)">
      <use xlink:href="#DejaVuSans-61"/>
      <use x="61.279297" xlink:href="#DejaVuSans-6f"/>
      <use x="122.460938" xlink:href="#DejaVuSans-3d"/>
      <use x="206.25" xlink:href="#DejaVuSans-36"/>
     </g>
    </g>
    <g id="line2d_8">
     <path d="M 346.410938 49.376562 
L 366.410938 49.376562 
" style="fill:none;stroke:#ff0000;stroke-linecap:square;stroke-width:1.5;"/>
    </g>
    <g id="line2d_9"/>
    <g id="text_2">
     <!-- ao=4 -->
     <defs>
      <path d="M 37.796875 64.3125 
L 12.890625 25.390625 
L 37.796875 25.390625 
z
M 35.203125 72.90625 
L 47.609375 72.90625 
L 47.609375 25.390625 
L 58.015625 25.390625 
L 58.015625 17.1875 
L 47.609375 17.1875 
L 47.609375 0 
L 37.796875 0 
L 37.796875 17.1875 
L 4.890625 17.1875 
L 4.890625 26.703125 
z
" id="DejaVuSans-34"/>
     </defs>
     <g transform="translate(374.410938 52.876562)scale(0.1 -0.1)">
      <use xlink:href="#DejaVuSans-61"/>
      <use x="61.279297" xlink:href="#DejaVuSans-6f"/>
      <use x="122.460938" xlink:href="#DejaVuSans-3d"/>
      <use x="206.25" xlink:href="#DejaVuSans-34"/>
     </g>
    </g>
    <g id="line2d_10">
     <path d="M 346.410938 64.054687 
L 366.410938 64.054687 
" style="fill:none;stroke:#0000ff;stroke-linecap:square;stroke-width:1.5;"/>
    </g>
    <g id="line2d_11"/>
    <g id="text_3">
     <!-- ao=2 -->
     <defs>
      <path d="M 19.1875 8.296875 
L 53.609375 8.296875 
L 53.609375 0 
L 7.328125 0 
L 7.328125 8.296875 
Q 12.9375 14.109375 22.625 23.890625 
Q 32.328125 33.6875 34.8125 36.53125 
Q 39.546875 41.84375 41.421875 45.53125 
Q 43.3125 49.21875 43.3125 52.78125 
Q 43.3125 58.59375 39.234375 62.25 
Q 35.15625 65.921875 28.609375 65.921875 
Q 23.96875 65.921875 18.8125 64.3125 
Q 13.671875 62.703125 7.8125 59.421875 
L 7.8125 69.390625 
Q 13.765625 71.78125 18.9375 73 
Q 24.125 74.21875 28.421875 74.21875 
Q 39.75 74.21875 46.484375 68.546875 
Q 53.21875 62.890625 53.21875 53.421875 
Q 53.21875 48.921875 51.53125 44.890625 
Q 49.859375 40.875 45.40625 35.40625 
Q 44.1875 33.984375 37.640625 27.21875 
Q 31.109375 20.453125 19.1875 8.296875 
z
" id="DejaVuSans-32"/>
     </defs>
     <g transform="translate(374.410938 67.554687)scale(0.1 -0.1)">
      <use xlink:href="#DejaVuSans-61"/>
      <use x="61.279297" xlink:href="#DejaVuSans-6f"/>
      <use x="122.460938" xlink:href="#DejaVuSans-3d"/>
      <use x="206.25" xlink:href="#DejaVuSans-32"/>
     </g>
    </g>
   </g>
  </g>
 </g>
 <defs>
  <clipPath id="p200bbe15bb">
   <rect height="388.8" width="388.8" x="21.6" y="21.6"/>
  </clipPath>
 </defs>
</svg>
