<?xml version="1.0" encoding="utf-8" standalone="no"?>
<!DOCTYPE svg PUBLIC "-//W3C//DTD SVG 1.1//EN"
  "http://www.w3.org/Graphics/SVG/1.1/DTD/svg11.dtd">
<!-- Created with matplotlib (http://matplotlib.org/) -->
<svg height="432pt" version="1.1" viewBox="0 0 432 432" width="432pt" xmlns="http://www.w3.org/2000/svg" xmlns:xlink="http://www.w3.org/1999/xlink">
 <defs>
  <style type="text/css">
*{stroke-linecap:butt;stroke-linejoin:round;}
  </style>
 </defs>
 <g id="figure_1">
  <g id="patch_1">
   <path d="M 0 432 
L 432 432 
L 432 0 
L 0 0 
z
" style="fill:none;"/>
  </g>
  <g id="axes_1">
   <g id="line2d_1">
    <path clip-path="url(#pd7105d0197)" d="M 39.272727 255.494949 
L 44.574545 235.327857 
L 49.876364 216.019591 
L 55.178182 197.603034 
L 60.48 180.108293 
L 65.781818 163.562694 
L 71.083636 147.990783 
L 74.618182 138.161312 
L 78.152727 128.780087 
L 81.687273 119.852324 
L 85.221818 111.382688 
L 88.756364 103.375297 
L 92.290909 95.833717 
L 95.825455 88.760969 
L 99.36 82.159522 
L 102.894545 76.031299 
L 106.429091 70.37767 
L 109.963636 65.19946 
L 113.498182 60.496943 
L 117.032727 56.269844 
L 120.567273 52.51734 
L 124.101818 49.23806 
L 127.636364 46.430081 
L 131.170909 44.090933 
L 134.705455 42.217597 
L 138.24 40.806506 
L 141.774545 39.853542 
L 145.309091 39.354039 
L 147.076364 39.272727 
L 150.610909 39.443467 
L 154.145455 40.053602 
L 157.68 41.096545 
L 161.214545 42.565159 
L 164.749091 44.451761 
L 168.283636 46.748115 
L 171.818182 49.445439 
L 175.352727 52.534402 
L 178.887273 56.005121 
L 182.421818 59.847169 
L 185.956364 64.049566 
L 189.490909 68.600784 
L 193.025455 73.488748 
L 196.56 78.700832 
L 200.094545 84.223861 
L 203.629091 90.044113 
L 208.930909 99.300411 
L 214.232727 109.142735 
L 219.534545 119.517821 
L 224.836364 130.369625 
L 231.905455 145.478195 
L 238.974545 161.182262 
L 247.810909 181.411428 
L 276.087273 246.84746 
L 283.156364 262.393137 
L 288.458182 273.58274 
L 293.76 284.267627 
L 299.061818 294.352852 
L 302.596364 300.695044 
L 306.130909 306.6977 
L 309.665455 312.330629 
L 313.2 317.563092 
L 316.734545 322.363799 
L 320.269091 326.700912 
L 323.803636 330.542045 
L 327.338182 333.854261 
L 329.105455 335.301583 
L 330.872727 336.604077 
L 332.64 337.75747 
L 334.407273 338.757458 
L 336.174545 339.5997 
L 337.941818 340.279822 
L 339.709091 340.793415 
L 341.476364 341.136037 
L 343.243636 341.30321 
L 345.010909 341.290423 
L 346.778182 341.093131 
L 348.545455 340.706752 
L 350.312727 340.126672 
L 352.08 339.348243 
L 353.847273 338.366782 
L 355.614545 337.177571 
L 357.381818 335.775858 
L 359.149091 334.156859 
L 360.916364 332.315751 
L 362.683636 330.247681 
L 364.450909 327.947761 
L 366.218182 325.411065 
L 367.985455 322.632638 
L 369.752727 319.607488 
L 371.52 316.330587 
L 373.287273 312.796876 
L 375.054545 309.00126 
L 378.589091 300.603763 
L 382.123636 291.09665 
L 385.658182 280.43793 
L 389.192727 268.58506 
L 392.727273 255.494949 
L 392.727273 255.494949 
" style="fill:none;stroke:#008000;stroke-linecap:square;stroke-width:1.5;"/>
   </g>
   <g id="line2d_2">
    <path clip-path="url(#pd7105d0197)" d="M 39.272727 118.262625 
L 44.574545 115.620903 
L 49.876364 113.185029 
L 55.178182 110.955004 
L 60.48 108.930827 
L 65.781818 107.112499 
L 71.083636 105.500019 
L 76.385455 104.093388 
L 81.687273 102.892605 
L 86.989091 101.89767 
L 92.290909 101.108585 
L 97.592727 100.525347 
L 102.894545 100.147958 
L 108.196364 99.976418 
L 113.498182 100.010726 
L 118.8 100.250883 
L 124.101818 100.696888 
L 129.403636 101.348741 
L 134.705455 102.206443 
L 140.007273 103.269994 
L 145.309091 104.539393 
L 150.610909 106.01464 
L 155.912727 107.695736 
L 161.214545 109.582681 
L 166.516364 111.675474 
L 171.818182 113.974115 
L 177.12 116.478605 
L 182.421818 119.188943 
L 187.723636 122.10513 
L 193.025455 125.227165 
L 198.327273 128.555049 
L 203.629091 132.088782 
L 208.930909 135.828363 
L 216 141.134679 
L 223.069091 146.806948 
L 230.138182 152.845171 
L 237.207273 159.249346 
L 244.276364 166.019474 
L 251.345455 173.155555 
L 258.414545 180.657588 
L 265.483636 188.525575 
L 272.552727 196.759514 
L 279.621818 205.359407 
L 286.690909 214.325252 
L 293.76 223.65705 
L 300.829091 233.354801 
L 307.898182 243.418504 
L 314.967273 253.848161 
L 322.036364 264.64377 
L 329.105455 275.805333 
L 336.174545 287.332848 
L 343.243636 299.226316 
L 350.312727 311.485737 
L 357.381818 324.111111 
L 366.218182 340.407449 
L 375.054545 357.275589 
L 383.890909 374.71553 
L 392.727273 392.727273 
L 392.727273 392.727273 
" style="fill:none;stroke:#ff0000;stroke-linecap:square;stroke-width:1.5;"/>
   </g>
   <g id="line2d_3">
    <path clip-path="url(#pd7105d0197)" d="M 39.272727 179.254769 
L 392.727273 179.254769 
L 392.727273 179.254769 
" style="fill:none;stroke:#0000ff;stroke-linecap:square;stroke-width:1.5;"/>
   </g>
   <g id="line2d_4">
    <path clip-path="url(#pd7105d0197)" d="M 21.6 255.494949 
L 410.4 255.494949 
" style="fill:none;stroke:#000000;stroke-linecap:square;stroke-width:1.5;"/>
   </g>
   <g id="line2d_5">
    <path clip-path="url(#pd7105d0197)" d="M 39.272727 410.4 
L 39.272727 21.6 
" style="fill:none;stroke:#000000;stroke-linecap:square;stroke-width:1.5;"/>
   </g>
   <g id="legend_1">
    <g id="patch_2">
     <path d="M 344.410938 73.634375 
L 403.4 73.634375 
Q 405.4 73.634375 405.4 71.634375 
L 405.4 28.6 
Q 405.4 26.6 403.4 26.6 
L 344.410938 26.6 
Q 342.410938 26.6 342.410938 28.6 
L 342.410938 71.634375 
Q 342.410938 73.634375 344.410938 73.634375 
z
" style="fill:#ffffff;opacity:0.8;stroke:#cccccc;stroke-linejoin:miter;"/>
    </g>
    <g id="line2d_6">
     <path d="M 346.410938 34.698437 
L 366.410938 34.698437 
" style="fill:none;stroke:#008000;stroke-linecap:square;stroke-width:1.5;"/>
    </g>
    <g id="line2d_7"/>
    <g id="text_1">
     <!-- ao=6 -->
     <defs>
      <path d="M 34.28125 27.484375 
Q 23.390625 27.484375 19.1875 25 
Q 14.984375 22.515625 14.984375 16.5 
Q 14.984375 11.71875 18.140625 8.90625 
Q 21.296875 6.109375 26.703125 6.109375 
Q 34.1875 6.109375 38.703125 11.40625 
Q 43.21875 16.703125 43.21875 25.484375 
L 43.21875 27.484375 
z
M 52.203125 31.203125 
L 52.203125 0 
L 43.21875 0 
L 43.21875 8.296875 
Q 40.140625 3.328125 35.546875 0.953125 
Q 30.953125 -1.421875 24.3125 -1.421875 
Q 15.921875 -1.421875 10.953125 3.296875 
Q 6 8.015625 6 15.921875 
Q 6 25.140625 12.171875 29.828125 
Q 18.359375 34.515625 30.609375 34.515625 
L 43.21875 34.515625 
L 43.21875 35.40625 
Q 43.21875 41.609375 39.140625 45 
Q 35.0625 48.390625 27.6875 48.390625 
Q 23 48.390625 18.546875 47.265625 
Q 14.109375 46.140625 10.015625 43.890625 
L 10.015625 52.203125 
Q 14.9375 54.109375 19.578125 55.046875 
Q 24.21875 56 28.609375 56 
Q 40.484375 56 46.34375 49.84375 
Q 52.203125 43.703125 52.203125 31.203125 
z
" id="DejaVuSans-61"/>
      <path d="M 30.609375 48.390625 
Q 23.390625 48.390625 19.1875 42.75 
Q 14.984375 37.109375 14.984375 27.296875 
Q 14.984375 17.484375 19.15625 11.84375 
Q 23.34375 6.203125 30.609375 6.203125 
Q 37.796875 6.203125 41.984375 11.859375 
Q 46.1875 17.53125 46.1875 27.296875 
Q 46.1875 37.015625 41.984375 42.703125 
Q 37.796875 48.390625 30.609375 48.390625 
z
M 30.609375 56 
Q 42.328125 56 49.015625 48.375 
Q 55.71875 40.765625 55.71875 27.296875 
Q 55.71875 13.875 49.015625 6.21875 
Q 42.328125 -1.421875 30.609375 -1.421875 
Q 18.84375 -1.421875 12.171875 6.21875 
Q 5.515625 13.875 5.515625 27.296875 
Q 5.515625 40.765625 12.171875 48.375 
Q 18.84375 56 30.609375 56 
z
" id="DejaVuSans-6f"/>
      <path d="M 10.59375 45.40625 
L 73.1875 45.40625 
L 73.1875 37.203125 
L 10.59375 37.203125 
z
M 10.59375 25.484375 
L 73.1875 25.484375 
L 73.1875 17.1875 
L 10.59375 17.1875 
z
" id="DejaVuSans-3d"/>
      <path d="M 33.015625 40.375 
Q 26.375 40.375 22.484375 35.828125 
Q 18.609375 31.296875 18.609375 23.390625 
Q 18.609375 15.53125 22.484375 10.953125 
Q 26.375 6.390625 33.015625 6.390625 
Q 39.65625 6.390625 43.53125 10.953125 
Q 47.40625 15.53125 47.40625 23.390625 
Q 47.40625 31.296875 43.53125 35.828125 
Q 39.65625 40.375 33.015625 40.375 
z
M 52.59375 71.296875 
L 52.59375 62.3125 
Q 48.875 64.0625 45.09375 64.984375 
Q 41.3125 65.921875 37.59375 65.921875 
Q 27.828125 65.921875 22.671875 59.328125 
Q 17.53125 52.734375 16.796875 39.40625 
Q 19.671875 43.65625 24.015625 45.921875 
Q 28.375 48.1875 33.59375 48.1875 
Q 44.578125 48.1875 50.953125 41.515625 
Q 57.328125 34.859375 57.328125 23.390625 
Q 57.328125 12.15625 50.6875 5.359375 
Q 44.046875 -1.421875 33.015625 -1.421875 
Q 20.359375 -1.421875 13.671875 8.265625 
Q 6.984375 17.96875 6.984375 36.375 
Q 6.984375 53.65625 15.1875 63.9375 
Q 23.390625 74.21875 37.203125 74.21875 
Q 40.921875 74.21875 44.703125 73.484375 
Q 48.484375 72.75 52.59375 71.296875 
z
" id="DejaVuSans-36"/>
     </defs>
     <g transform="translate(374.410938 38.198437)scale(0.1 -0.1)">
      <use xlink:href="#DejaVuSans-61"/>
      <use x="61.279297" xlink:href="#DejaVuSans-6f"/>
      <use x="122.460938" xlink:href="#DejaVuSans-3d"/>
      <use x="206.25" xlink:href="#DejaVuSans-36"/>
     </g>
    </g>
    <g id="line2d_8">
     <path d="M 346.410938 49.376562 
L 366.410938 49.376562 
" style="fill:none;stroke:#ff0000;stroke-linecap:square;stroke-width:1.5;"/>
    </g>
    <g id="line2d_9"/>
    <g id="text_2">
     <!-- ao=4 -->
     <defs>
      <path d="M 37.796875 64.3125 
L 12.890625 25.390625 
L 37.796875 25.390625 
z
M 35.203125 72.90625 
L 47.609375 72.90625 
L 47.609375 25.390625 
L 58.015625 25.390625 
L 58.015625 17.1875 
L 47.609375 17.1875 
L 47.609375 0 
L 37.796875 0 
L 37.796875 17.1875 
L 4.890625 17.1875 
L 4.890625 26.703125 
z
" id="DejaVuSans-34"/>
     </defs>
     <g transform="translate(374.410938 52.876562)scale(0.1 -0.1)">
      <use xlink:href="#DejaVuSans-61"/>
      <use x="61.279297" xlink:href="#DejaVuSans-6f"/>
      <use x="122.460938" xlink:href="#DejaVuSans-3d"/>
      <use x="206.25" xlink:href="#DejaVuSans-34"/>
     </g>
    </g>
    <g id="line2d_10">
     <path d="M 346.410938 64.054687 
L 366.410938 64.054687 
" style="fill:none;stroke:#0000ff;stroke-linecap:square;stroke-width:1.5;"/>
    </g>
    <g id="line2d_11"/>
    <g id="text_3">
     <!-- ao=2 -->
     <defs>
      <path d="M 19.1875 8.296875 
L 53.609375 8.296875 
L 53.609375 0 
L 7.328125 0 
L 7.328125 8.296875 
Q 12.9375 14.109375 22.625 23.890625 
Q 32.328125 33.6875 34.8125 36.53125 
Q 39.546875 41.84375 41.421875 45.53125 
Q 43.3125 49.21875 43.3125 52.78125 
Q 43.3125 58.59375 39.234375 62.25 
Q 35.15625 65.921875 28.609375 65.921875 
Q 23.96875 65.921875 18.8125 64.3125 
Q 13.671875 62.703125 7.8125 59.421875 
L 7.8125 69.390625 
Q 13.765625 71.78125 18.9375 73 
Q 24.125 74.21875 28.421875 74.21875 
Q 39.75 74.21875 46.484375 68.546875 
Q 53.21875 62.890625 53.21875 53.421875 
Q 53.21875 48.921875 51.53125 44.890625 
Q 49.859375 40.875 45.40625 35.40625 
Q 44.1875 33.984375 37.640625 27.21875 
Q 31.109375 20.453125 19.1875 8.296875 
z
" id="DejaVuSans-32"/>
     </defs>
     <g transform="translate(374.410938 67.554687)scale(0.1 -0.1)">
      <use xlink:href="#DejaVuSans-61"/>
      <use x="61.279297" xlink:href="#DejaVuSans-6f"/>
      <use x="122.460938" xlink:href="#DejaVuSans-3d"/>
      <use x="206.25" xlink:href="#DejaVuSans-32"/>
     </g>
    </g>
   </g>
  </g>
 </g>
 <defs>
  <clipPath id="pd7105d0197">
   <rect height="388.8" width="388.8" x="21.6" y="21.6"/>
  </clipPath>
 </defs>
</svg>
