<?xml version="1.0" encoding="utf-8" standalone="no"?>
<!DOCTYPE svg PUBLIC "-//W3C//DTD SVG 1.1//EN"
  "http://www.w3.org/Graphics/SVG/1.1/DTD/svg11.dtd">
<!-- Created with matplotlib (http://matplotlib.org/) -->
<svg height="432pt" version="1.1" viewBox="0 0 432 432" width="432pt" xmlns="http://www.w3.org/2000/svg" xmlns:xlink="http://www.w3.org/1999/xlink">
 <defs>
  <style type="text/css">
*{stroke-linecap:butt;stroke-linejoin:round;}
  </style>
 </defs>
 <g id="figure_1">
  <g id="patch_1">
   <path d="M 0 432 
L 432 432 
L 432 0 
L 0 0 
z
" style="fill:none;"/>
  </g>
  <g id="axes_1">
   <g id="line2d_1">
    <path clip-path="url(#p8dcc9ef471)" d="M 39.272727 360.595041 
L 49.876364 360.512142 
L 56.945455 360.22291 
L 62.247273 359.79641 
L 67.549091 359.140974 
L 72.850909 358.217765 
L 78.152727 356.992864 
L 83.454545 355.437096 
L 86.989091 354.203769 
L 90.523636 352.806164 
L 94.058182 351.238927 
L 97.592727 349.497523 
L 101.127273 347.578218 
L 104.661818 345.478051 
L 108.196364 343.194813 
L 111.730909 340.727026 
L 115.265455 338.073914 
L 120.567273 333.746745 
L 125.869091 329.004993 
L 131.170909 323.854269 
L 136.472727 318.303169 
L 141.774545 312.363103 
L 147.076364 306.048114 
L 152.378182 299.374703 
L 157.68 292.361658 
L 162.981818 285.029874 
L 170.050909 274.798056 
L 177.12 264.099261 
L 184.189091 252.997189 
L 193.025455 238.656063 
L 203.629091 220.951879 
L 224.836364 184.896985 
L 237.207273 164.130653 
L 246.043636 149.701246 
L 253.112727 138.508802 
L 260.181818 127.703044 
L 267.250909 117.348761 
L 272.552727 109.915713 
L 277.854545 102.794 
L 283.156364 96.005183 
L 288.458182 89.56877 
L 293.76 83.502044 
L 299.061818 77.819888 
L 304.363636 72.534607 
L 309.665455 67.655757 
L 314.967273 63.189961 
L 320.269091 59.140743 
L 323.803636 56.672955 
L 327.338182 54.389718 
L 330.872727 52.289551 
L 334.407273 50.370245 
L 337.941818 48.628842 
L 341.476364 47.061604 
L 345.010909 45.663999 
L 348.545455 44.430672 
L 353.847273 42.874905 
L 359.149091 41.650004 
L 364.450909 40.726795 
L 369.752727 40.071359 
L 375.054545 39.644859 
L 382.123636 39.355627 
L 390.96 39.273126 
L 392.727273 39.272727 
L 392.727273 39.272727 
" style="fill:none;stroke:#008000;stroke-linecap:square;stroke-width:1.5;"/>
   </g>
   <g id="line2d_2">
    <path clip-path="url(#p8dcc9ef471)" d="M 39.272727 360.595041 
L 42.807273 360.499287 
L 46.341818 360.214596 
L 49.876364 359.744822 
L 53.410909 359.093823 
L 56.945455 358.265455 
L 60.48 357.263572 
L 64.014545 356.09203 
L 67.549091 354.754687 
L 72.850909 352.446227 
L 78.152727 349.786401 
L 83.454545 346.788223 
L 88.756364 343.464706 
L 94.058182 339.828864 
L 99.36 335.89371 
L 104.661818 331.672258 
L 109.963636 327.177521 
L 115.265455 322.422513 
L 120.567273 317.420247 
L 127.636364 310.38843 
L 134.705455 302.971025 
L 141.774545 295.198881 
L 148.843636 287.102844 
L 155.912727 278.713761 
L 164.749091 267.862305 
L 173.585455 256.661411 
L 184.189091 242.843909 
L 196.56 226.336055 
L 216 199.933884 
L 238.974545 168.781445 
L 251.345455 152.378182 
L 261.949091 138.687923 
L 270.785455 127.619575 
L 279.621818 116.924763 
L 286.690909 108.678347 
L 293.76 100.740401 
L 300.829091 93.141771 
L 307.898182 85.913304 
L 314.967273 79.085847 
L 320.269091 74.246974 
L 325.570909 69.664034 
L 330.872727 65.350041 
L 336.174545 61.318009 
L 341.476364 57.58095 
L 346.778182 54.151878 
L 352.08 51.043808 
L 357.381818 48.269752 
L 362.683636 45.842724 
L 366.218182 44.423926 
L 369.752727 43.169001 
L 373.287273 42.081807 
L 376.821818 41.166199 
L 380.356364 40.426033 
L 383.890909 39.865165 
L 387.425455 39.487451 
L 390.96 39.296746 
L 392.727273 39.272727 
L 392.727273 39.272727 
" style="fill:none;stroke:#ff0000;stroke-linecap:square;stroke-width:1.5;"/>
   </g>
   <g id="line2d_3">
    <path clip-path="url(#p8dcc9ef471)" d="M 39.272727 360.595041 
L 392.727273 39.272727 
L 392.727273 39.272727 
" style="fill:none;stroke:#0000ff;stroke-linecap:square;stroke-width:1.5;"/>
   </g>
   <g id="line2d_4">
    <path clip-path="url(#p8dcc9ef471)" d="M 21.6 392.727273 
L 410.4 392.727273 
" style="fill:none;stroke:#000000;stroke-linecap:square;stroke-width:1.5;"/>
   </g>
   <g id="line2d_5">
    <path clip-path="url(#p8dcc9ef471)" d="M 39.272727 410.4 
L 39.272727 21.6 
" style="fill:none;stroke:#000000;stroke-linecap:square;stroke-width:1.5;"/>
   </g>
   <g id="legend_1">
    <g id="patch_2">
     <path d="M 344.410938 239.517188 
L 403.4 239.517188 
Q 405.4 239.517188 405.4 237.517188 
L 405.4 194.482812 
Q 405.4 192.482812 403.4 192.482812 
L 344.410938 192.482812 
Q 342.410938 192.482812 342.410938 194.482812 
L 342.410938 237.517188 
Q 342.410938 239.517188 344.410938 239.517188 
z
" style="fill:#ffffff;opacity:0.8;stroke:#cccccc;stroke-linejoin:miter;"/>
    </g>
    <g id="line2d_6">
     <path d="M 346.410938 200.58125 
L 366.410938 200.58125 
" style="fill:none;stroke:#008000;stroke-linecap:square;stroke-width:1.5;"/>
    </g>
    <g id="line2d_7"/>
    <g id="text_1">
     <!-- ao=6 -->
     <defs>
      <path d="M 34.28125 27.484375 
Q 23.390625 27.484375 19.1875 25 
Q 14.984375 22.515625 14.984375 16.5 
Q 14.984375 11.71875 18.140625 8.90625 
Q 21.296875 6.109375 26.703125 6.109375 
Q 34.1875 6.109375 38.703125 11.40625 
Q 43.21875 16.703125 43.21875 25.484375 
L 43.21875 27.484375 
z
M 52.203125 31.203125 
L 52.203125 0 
L 43.21875 0 
L 43.21875 8.296875 
Q 40.140625 3.328125 35.546875 0.953125 
Q 30.953125 -1.421875 24.3125 -1.421875 
Q 15.921875 -1.421875 10.953125 3.296875 
Q 6 8.015625 6 15.921875 
Q 6 25.140625 12.171875 29.828125 
Q 18.359375 34.515625 30.609375 34.515625 
L 43.21875 34.515625 
L 43.21875 35.40625 
Q 43.21875 41.609375 39.140625 45 
Q 35.0625 48.390625 27.6875 48.390625 
Q 23 48.390625 18.546875 47.265625 
Q 14.109375 46.140625 10.015625 43.890625 
L 10.015625 52.203125 
Q 14.9375 54.109375 19.578125 55.046875 
Q 24.21875 56 28.609375 56 
Q 40.484375 56 46.34375 49.84375 
Q 52.203125 43.703125 52.203125 31.203125 
z
" id="DejaVuSans-61"/>
      <path d="M 30.609375 48.390625 
Q 23.390625 48.390625 19.1875 42.75 
Q 14.984375 37.109375 14.984375 27.296875 
Q 14.984375 17.484375 19.15625 11.84375 
Q 23.34375 6.203125 30.609375 6.203125 
Q 37.796875 6.203125 41.984375 11.859375 
Q 46.1875 17.53125 46.1875 27.296875 
Q 46.1875 37.015625 41.984375 42.703125 
Q 37.796875 48.390625 30.609375 48.390625 
z
M 30.609375 56 
Q 42.328125 56 49.015625 48.375 
Q 55.71875 40.765625 55.71875 27.296875 
Q 55.71875 13.875 49.015625 6.21875 
Q 42.328125 -1.421875 30.609375 -1.421875 
Q 18.84375 -1.421875 12.171875 6.21875 
Q 5.515625 13.875 5.515625 27.296875 
Q 5.515625 40.765625 12.171875 48.375 
Q 18.84375 56 30.609375 56 
z
" id="DejaVuSans-6f"/>
      <path d="M 10.59375 45.40625 
L 73.1875 45.40625 
L 73.1875 37.203125 
L 10.59375 37.203125 
z
M 10.59375 25.484375 
L 73.1875 25.484375 
L 73.1875 17.1875 
L 10.59375 17.1875 
z
" id="DejaVuSans-3d"/>
      <path d="M 33.015625 40.375 
Q 26.375 40.375 22.484375 35.828125 
Q 18.609375 31.296875 18.609375 23.390625 
Q 18.609375 15.53125 22.484375 10.953125 
Q 26.375 6.390625 33.015625 6.390625 
Q 39.65625 6.390625 43.53125 10.953125 
Q 47.40625 15.53125 47.40625 23.390625 
Q 47.40625 31.296875 43.53125 35.828125 
Q 39.65625 40.375 33.015625 40.375 
z
M 52.59375 71.296875 
L 52.59375 62.3125 
Q 48.875 64.0625 45.09375 64.984375 
Q 41.3125 65.921875 37.59375 65.921875 
Q 27.828125 65.921875 22.671875 59.328125 
Q 17.53125 52.734375 16.796875 39.40625 
Q 19.671875 43.65625 24.015625 45.921875 
Q 28.375 48.1875 33.59375 48.1875 
Q 44.578125 48.1875 50.953125 41.515625 
Q 57.328125 34.859375 57.328125 23.390625 
Q 57.328125 12.15625 50.6875 5.359375 
Q 44.046875 -1.421875 33.015625 -1.421875 
Q 20.359375 -1.421875 13.671875 8.265625 
Q 6.984375 17.96875 6.984375 36.375 
Q 6.984375 53.65625 15.1875 63.9375 
Q 23.390625 74.21875 37.203125 74.21875 
Q 40.921875 74.21875 44.703125 73.484375 
Q 48.484375 72.75 52.59375 71.296875 
z
" id="DejaVuSans-36"/>
     </defs>
     <g transform="translate(374.410938 204.08125)scale(0.1 -0.1)">
      <use xlink:href="#DejaVuSans-61"/>
      <use x="61.279297" xlink:href="#DejaVuSans-6f"/>
      <use x="122.460938" xlink:href="#DejaVuSans-3d"/>
      <use x="206.25" xlink:href="#DejaVuSans-36"/>
     </g>
    </g>
    <g id="line2d_8">
     <path d="M 346.410938 215.259375 
L 366.410938 215.259375 
" style="fill:none;stroke:#ff0000;stroke-linecap:square;stroke-width:1.5;"/>
    </g>
    <g id="line2d_9"/>
    <g id="text_2">
     <!-- ao=4 -->
     <defs>
      <path d="M 37.796875 64.3125 
L 12.890625 25.390625 
L 37.796875 25.390625 
z
M 35.203125 72.90625 
L 47.609375 72.90625 
L 47.609375 25.390625 
L 58.015625 25.390625 
L 58.015625 17.1875 
L 47.609375 17.1875 
L 47.609375 0 
L 37.796875 0 
L 37.796875 17.1875 
L 4.890625 17.1875 
L 4.890625 26.703125 
z
" id="DejaVuSans-34"/>
     </defs>
     <g transform="translate(374.410938 218.759375)scale(0.1 -0.1)">
      <use xlink:href="#DejaVuSans-61"/>
      <use x="61.279297" xlink:href="#DejaVuSans-6f"/>
      <use x="122.460938" xlink:href="#DejaVuSans-3d"/>
      <use x="206.25" xlink:href="#DejaVuSans-34"/>
     </g>
    </g>
    <g id="line2d_10">
     <path d="M 346.410938 229.9375 
L 366.410938 229.9375 
" style="fill:none;stroke:#0000ff;stroke-linecap:square;stroke-width:1.5;"/>
    </g>
    <g id="line2d_11"/>
    <g id="text_3">
     <!-- ao=2 -->
     <defs>
      <path d="M 19.1875 8.296875 
L 53.609375 8.296875 
L 53.609375 0 
L 7.328125 0 
L 7.328125 8.296875 
Q 12.9375 14.109375 22.625 23.890625 
Q 32.328125 33.6875 34.8125 36.53125 
Q 39.546875 41.84375 41.421875 45.53125 
Q 43.3125 49.21875 43.3125 52.78125 
Q 43.3125 58.59375 39.234375 62.25 
Q 35.15625 65.921875 28.609375 65.921875 
Q 23.96875 65.921875 18.8125 64.3125 
Q 13.671875 62.703125 7.8125 59.421875 
L 7.8125 69.390625 
Q 13.765625 71.78125 18.9375 73 
Q 24.125 74.21875 28.421875 74.21875 
Q 39.75 74.21875 46.484375 68.546875 
Q 53.21875 62.890625 53.21875 53.421875 
Q 53.21875 48.921875 51.53125 44.890625 
Q 49.859375 40.875 45.40625 35.40625 
Q 44.1875 33.984375 37.640625 27.21875 
Q 31.109375 20.453125 19.1875 8.296875 
z
" id="DejaVuSans-32"/>
     </defs>
     <g transform="translate(374.410938 233.4375)scale(0.1 -0.1)">
      <use xlink:href="#DejaVuSans-61"/>
      <use x="61.279297" xlink:href="#DejaVuSans-6f"/>
      <use x="122.460938" xlink:href="#DejaVuSans-3d"/>
      <use x="206.25" xlink:href="#DejaVuSans-32"/>
     </g>
    </g>
   </g>
  </g>
 </g>
 <defs>
  <clipPath id="p8dcc9ef471">
   <rect height="388.8" width="388.8" x="21.6" y="21.6"/>
  </clipPath>
 </defs>
</svg>
