<?xml version="1.0" encoding="utf-8" standalone="no"?>
<!DOCTYPE svg PUBLIC "-//W3C//DTD SVG 1.1//EN"
  "http://www.w3.org/Graphics/SVG/1.1/DTD/svg11.dtd">
<!-- Created with matplotlib (http://matplotlib.org/) -->
<svg height="432pt" version="1.1" viewBox="0 0 518.4 432" width="518.4pt" xmlns="http://www.w3.org/2000/svg" xmlns:xlink="http://www.w3.org/1999/xlink">
 <defs>
  <style type="text/css">
*{stroke-linecap:butt;stroke-linejoin:round;}
  </style>
 </defs>
 <g id="figure_1">
  <g id="patch_1">
   <path d="M 0 432 
L 518.4 432 
L 518.4 0 
L 0 0 
z
" style="fill:none;"/>
  </g>
  <g id="axes_1">
   <g id="line2d_1">
    <path clip-path="url(#pf7c651937b)" d="M 47.127273 367.480519 
L 84.24 367.423968 
L 87.774545 366.976165 
L 91.309091 366.092525 
L 94.843636 364.785855 
L 98.378182 363.06928 
L 101.912727 360.956224 
L 105.447273 358.460395 
L 108.981818 355.595763 
L 112.516364 352.376544 
L 116.050909 348.81718 
L 119.585455 344.932323 
L 123.12 340.736816 
L 126.654545 336.245675 
L 130.189091 331.47407 
L 135.490909 323.824307 
L 140.792727 315.630105 
L 146.094545 306.944061 
L 151.396364 297.819097 
L 156.698182 288.308317 
L 163.767273 275.118972 
L 170.836364 261.46388 
L 179.672727 243.930044 
L 215.018182 173.183454 
L 222.087273 159.745688 
L 229.156364 146.792007 
L 234.458182 137.452047 
L 239.76 128.476144 
L 245.061818 119.900146 
L 250.363636 111.75765 
L 255.665455 104.079858 
L 260.967273 96.895442 
L 266.269091 90.230406 
L 269.803636 86.087167 
L 273.338182 82.191285 
L 276.872727 78.548312 
L 280.407273 75.163182 
L 283.941818 72.040192 
L 287.476364 69.182985 
L 291.010909 66.594532 
L 294.545455 64.277112 
L 298.08 62.232296 
L 301.614545 60.460929 
L 305.149091 58.963108 
L 308.683636 57.738169 
L 312.218182 56.784664 
L 315.752727 56.100348 
L 319.287273 55.682156 
L 322.821818 55.526188 
L 326.356364 55.627688 
L 329.890909 55.981029 
L 333.425455 56.579692 
L 336.96 57.416251 
L 340.494545 58.482352 
L 344.029091 59.768694 
L 347.563636 61.265016 
L 351.098182 62.960073 
L 354.632727 64.84162 
L 359.934545 67.984318 
L 365.236364 71.467387 
L 370.538182 75.236294 
L 377.607273 80.601529 
L 388.210909 89.049965 
L 398.814545 97.428084 
L 404.116364 101.37287 
L 409.418182 105.025968 
L 412.952727 107.247855 
L 416.487273 109.260995 
L 420.021818 111.03137 
L 423.556364 112.523607 
L 427.090909 113.70096 
L 430.625455 114.525293 
L 434.16 114.957062 
L 437.694545 115.012987 
L 471.272727 115.012987 
L 471.272727 115.012987 
" style="fill:none;stroke:#008000;stroke-linecap:square;stroke-width:1.5;"/>
   </g>
   <g id="line2d_2">
    <path clip-path="url(#pf7c651937b)" d="M 47.127273 367.480519 
L 82.472727 367.480519 
L 82.472727 367.480519 
L 91.309091 355.938019 
L 100.145455 344.064156 
L 110.749091 329.444771 
L 123.12 311.981024 
L 139.025455 289.082282 
L 186.741818 220.017958 
L 199.112727 202.668199 
L 209.716364 188.176058 
L 218.552727 176.429059 
L 227.389091 165.032359 
L 236.225455 154.033296 
L 243.294545 145.552154 
L 250.363636 137.380032 
L 257.432727 129.541168 
L 264.501818 122.059798 
L 271.570909 114.960158 
L 276.872727 109.900519 
L 282.174545 105.079463 
L 287.476364 100.507212 
L 292.778182 96.193994 
L 298.08 92.150032 
L 303.381818 88.385552 
L 308.683636 84.910778 
L 313.985455 81.735936 
L 319.287273 78.87125 
L 324.589091 76.326945 
L 329.890909 74.113247 
L 335.192727 72.240379 
L 338.727273 71.186201 
L 342.261818 70.291078 
L 345.796364 69.558038 
L 349.330909 68.990112 
L 352.865455 68.59033 
L 356.4 68.361721 
L 359.934545 68.307314 
L 363.469091 68.430139 
L 367.003636 68.733227 
L 370.538182 69.219605 
L 374.072727 69.892305 
L 377.607273 70.754356 
L 381.141818 71.808786 
L 384.676364 73.058627 
L 388.210909 74.506907 
L 391.745455 76.156656 
L 395.28 78.010904 
L 398.814545 80.07268 
L 402.349091 82.345014 
L 405.883636 84.830935 
L 409.418182 87.533474 
L 412.952727 90.455659 
L 416.487273 93.600521 
L 420.021818 96.971089 
L 423.556364 100.570392 
L 427.090909 104.401461 
L 430.625455 108.467324 
L 434.16 112.771012 
L 435.927273 115.012987 
L 435.927273 115.012987 
L 471.272727 115.012987 
L 471.272727 115.012987 
" style="fill:none;stroke:#ff0000;stroke-linecap:square;stroke-width:1.5;"/>
   </g>
   <g id="line2d_3">
    <path clip-path="url(#pf7c651937b)" d="M 47.127273 367.480519 
L 82.472727 367.480519 
L 82.472727 291.74026 
L 435.927273 39.272727 
L 435.927273 115.012987 
L 471.272727 115.012987 
L 471.272727 115.012987 
" style="fill:none;stroke:#0000ff;stroke-linecap:square;stroke-width:1.5;"/>
   </g>
   <g id="line2d_4">
    <path clip-path="url(#pf7c651937b)" d="M 25.92 392.727273 
L 492.48 392.727273 
" style="fill:none;stroke:#000000;stroke-linecap:square;stroke-width:1.5;"/>
   </g>
   <g id="line2d_5">
    <path clip-path="url(#pf7c651937b)" d="M 82.472727 410.4 
L 82.472727 21.6 
" style="fill:none;stroke:#000000;stroke-linecap:square;stroke-width:1.5;"/>
   </g>
   <g id="legend_1">
    <g id="patch_2">
     <path d="M 426.490938 239.517188 
L 485.48 239.517188 
Q 487.48 239.517188 487.48 237.517188 
L 487.48 194.482812 
Q 487.48 192.482812 485.48 192.482812 
L 426.490938 192.482812 
Q 424.490938 192.482812 424.490938 194.482812 
L 424.490938 237.517188 
Q 424.490938 239.517188 426.490938 239.517188 
z
" style="fill:#ffffff;opacity:0.8;stroke:#cccccc;stroke-linejoin:miter;"/>
    </g>
    <g id="line2d_6">
     <path d="M 428.490938 200.58125 
L 448.490938 200.58125 
" style="fill:none;stroke:#008000;stroke-linecap:square;stroke-width:1.5;"/>
    </g>
    <g id="line2d_7"/>
    <g id="text_1">
     <!-- ao=6 -->
     <defs>
      <path d="M 34.28125 27.484375 
Q 23.390625 27.484375 19.1875 25 
Q 14.984375 22.515625 14.984375 16.5 
Q 14.984375 11.71875 18.140625 8.90625 
Q 21.296875 6.109375 26.703125 6.109375 
Q 34.1875 6.109375 38.703125 11.40625 
Q 43.21875 16.703125 43.21875 25.484375 
L 43.21875 27.484375 
z
M 52.203125 31.203125 
L 52.203125 0 
L 43.21875 0 
L 43.21875 8.296875 
Q 40.140625 3.328125 35.546875 0.953125 
Q 30.953125 -1.421875 24.3125 -1.421875 
Q 15.921875 -1.421875 10.953125 3.296875 
Q 6 8.015625 6 15.921875 
Q 6 25.140625 12.171875 29.828125 
Q 18.359375 34.515625 30.609375 34.515625 
L 43.21875 34.515625 
L 43.21875 35.40625 
Q 43.21875 41.609375 39.140625 45 
Q 35.0625 48.390625 27.6875 48.390625 
Q 23 48.390625 18.546875 47.265625 
Q 14.109375 46.140625 10.015625 43.890625 
L 10.015625 52.203125 
Q 14.9375 54.109375 19.578125 55.046875 
Q 24.21875 56 28.609375 56 
Q 40.484375 56 46.34375 49.84375 
Q 52.203125 43.703125 52.203125 31.203125 
z
" id="DejaVuSans-61"/>
      <path d="M 30.609375 48.390625 
Q 23.390625 48.390625 19.1875 42.75 
Q 14.984375 37.109375 14.984375 27.296875 
Q 14.984375 17.484375 19.15625 11.84375 
Q 23.34375 6.203125 30.609375 6.203125 
Q 37.796875 6.203125 41.984375 11.859375 
Q 46.1875 17.53125 46.1875 27.296875 
Q 46.1875 37.015625 41.984375 42.703125 
Q 37.796875 48.390625 30.609375 48.390625 
z
M 30.609375 56 
Q 42.328125 56 49.015625 48.375 
Q 55.71875 40.765625 55.71875 27.296875 
Q 55.71875 13.875 49.015625 6.21875 
Q 42.328125 -1.421875 30.609375 -1.421875 
Q 18.84375 -1.421875 12.171875 6.21875 
Q 5.515625 13.875 5.515625 27.296875 
Q 5.515625 40.765625 12.171875 48.375 
Q 18.84375 56 30.609375 56 
z
" id="DejaVuSans-6f"/>
      <path d="M 10.59375 45.40625 
L 73.1875 45.40625 
L 73.1875 37.203125 
L 10.59375 37.203125 
z
M 10.59375 25.484375 
L 73.1875 25.484375 
L 73.1875 17.1875 
L 10.59375 17.1875 
z
" id="DejaVuSans-3d"/>
      <path d="M 33.015625 40.375 
Q 26.375 40.375 22.484375 35.828125 
Q 18.609375 31.296875 18.609375 23.390625 
Q 18.609375 15.53125 22.484375 10.953125 
Q 26.375 6.390625 33.015625 6.390625 
Q 39.65625 6.390625 43.53125 10.953125 
Q 47.40625 15.53125 47.40625 23.390625 
Q 47.40625 31.296875 43.53125 35.828125 
Q 39.65625 40.375 33.015625 40.375 
z
M 52.59375 71.296875 
L 52.59375 62.3125 
Q 48.875 64.0625 45.09375 64.984375 
Q 41.3125 65.921875 37.59375 65.921875 
Q 27.828125 65.921875 22.671875 59.328125 
Q 17.53125 52.734375 16.796875 39.40625 
Q 19.671875 43.65625 24.015625 45.921875 
Q 28.375 48.1875 33.59375 48.1875 
Q 44.578125 48.1875 50.953125 41.515625 
Q 57.328125 34.859375 57.328125 23.390625 
Q 57.328125 12.15625 50.6875 5.359375 
Q 44.046875 -1.421875 33.015625 -1.421875 
Q 20.359375 -1.421875 13.671875 8.265625 
Q 6.984375 17.96875 6.984375 36.375 
Q 6.984375 53.65625 15.1875 63.9375 
Q 23.390625 74.21875 37.203125 74.21875 
Q 40.921875 74.21875 44.703125 73.484375 
Q 48.484375 72.75 52.59375 71.296875 
z
" id="DejaVuSans-36"/>
     </defs>
     <g transform="translate(456.490938 204.08125)scale(0.1 -0.1)">
      <use xlink:href="#DejaVuSans-61"/>
      <use x="61.279297" xlink:href="#DejaVuSans-6f"/>
      <use x="122.460938" xlink:href="#DejaVuSans-3d"/>
      <use x="206.25" xlink:href="#DejaVuSans-36"/>
     </g>
    </g>
    <g id="line2d_8">
     <path d="M 428.490938 215.259375 
L 448.490938 215.259375 
" style="fill:none;stroke:#ff0000;stroke-linecap:square;stroke-width:1.5;"/>
    </g>
    <g id="line2d_9"/>
    <g id="text_2">
     <!-- ao=4 -->
     <defs>
      <path d="M 37.796875 64.3125 
L 12.890625 25.390625 
L 37.796875 25.390625 
z
M 35.203125 72.90625 
L 47.609375 72.90625 
L 47.609375 25.390625 
L 58.015625 25.390625 
L 58.015625 17.1875 
L 47.609375 17.1875 
L 47.609375 0 
L 37.796875 0 
L 37.796875 17.1875 
L 4.890625 17.1875 
L 4.890625 26.703125 
z
" id="DejaVuSans-34"/>
     </defs>
     <g transform="translate(456.490938 218.759375)scale(0.1 -0.1)">
      <use xlink:href="#DejaVuSans-61"/>
      <use x="61.279297" xlink:href="#DejaVuSans-6f"/>
      <use x="122.460938" xlink:href="#DejaVuSans-3d"/>
      <use x="206.25" xlink:href="#DejaVuSans-34"/>
     </g>
    </g>
    <g id="line2d_10">
     <path d="M 428.490938 229.9375 
L 448.490938 229.9375 
" style="fill:none;stroke:#0000ff;stroke-linecap:square;stroke-width:1.5;"/>
    </g>
    <g id="line2d_11"/>
    <g id="text_3">
     <!-- ao=2 -->
     <defs>
      <path d="M 19.1875 8.296875 
L 53.609375 8.296875 
L 53.609375 0 
L 7.328125 0 
L 7.328125 8.296875 
Q 12.9375 14.109375 22.625 23.890625 
Q 32.328125 33.6875 34.8125 36.53125 
Q 39.546875 41.84375 41.421875 45.53125 
Q 43.3125 49.21875 43.3125 52.78125 
Q 43.3125 58.59375 39.234375 62.25 
Q 35.15625 65.921875 28.609375 65.921875 
Q 23.96875 65.921875 18.8125 64.3125 
Q 13.671875 62.703125 7.8125 59.421875 
L 7.8125 69.390625 
Q 13.765625 71.78125 18.9375 73 
Q 24.125 74.21875 28.421875 74.21875 
Q 39.75 74.21875 46.484375 68.546875 
Q 53.21875 62.890625 53.21875 53.421875 
Q 53.21875 48.921875 51.53125 44.890625 
Q 49.859375 40.875 45.40625 35.40625 
Q 44.1875 33.984375 37.640625 27.21875 
Q 31.109375 20.453125 19.1875 8.296875 
z
" id="DejaVuSans-32"/>
     </defs>
     <g transform="translate(456.490938 233.4375)scale(0.1 -0.1)">
      <use xlink:href="#DejaVuSans-61"/>
      <use x="61.279297" xlink:href="#DejaVuSans-6f"/>
      <use x="122.460938" xlink:href="#DejaVuSans-3d"/>
      <use x="206.25" xlink:href="#DejaVuSans-32"/>
     </g>
    </g>
   </g>
  </g>
 </g>
 <defs>
  <clipPath id="pf7c651937b">
   <rect height="388.8" width="466.56" x="25.92" y="21.6"/>
  </clipPath>
 </defs>
</svg>
