<?xml version="1.0" encoding="utf-8" standalone="no"?>
<!DOCTYPE svg PUBLIC "-//W3C//DTD SVG 1.1//EN"
  "http://www.w3.org/Graphics/SVG/1.1/DTD/svg11.dtd">
<!-- Created with matplotlib (http://matplotlib.org/) -->
<svg height="432pt" version="1.1" viewBox="0 0 432 432" width="432pt" xmlns="http://www.w3.org/2000/svg" xmlns:xlink="http://www.w3.org/1999/xlink">
 <defs>
  <style type="text/css">
*{stroke-linecap:butt;stroke-linejoin:round;}
  </style>
 </defs>
 <g id="figure_1">
  <g id="patch_1">
   <path d="M 0 432 
L 432 432 
L 432 0 
L 0 0 
z
" style="fill:none;"/>
  </g>
  <g id="axes_1">
   <g id="line2d_1">
    <path clip-path="url(#pfd22ada207)" d="M 39.272727 392.727273 
L 72.850909 387.024196 
L 85.221818 384.711239 
L 95.825455 382.51208 
L 104.661818 380.463362 
L 113.498182 378.163437 
L 120.567273 376.107158 
L 127.636364 373.82919 
L 134.705455 371.302759 
L 141.774545 368.501791 
L 148.843636 365.40124 
L 154.145455 362.864901 
L 159.447273 360.137245 
L 164.749091 357.20941 
L 170.050909 354.073151 
L 175.352727 350.720894 
L 180.654545 347.145775 
L 185.956364 343.341682 
L 191.258182 339.303293 
L 196.56 335.026097 
L 201.861818 330.506428 
L 207.163636 325.741481 
L 212.465455 320.729326 
L 217.767273 315.468921 
L 223.069091 309.960118 
L 228.370909 304.203661 
L 235.44 296.146097 
L 242.509091 287.657569 
L 249.578182 278.747101 
L 256.647273 269.426348 
L 263.716364 259.709484 
L 270.785455 249.613054 
L 277.854545 239.15581 
L 284.923636 228.358513 
L 293.76 214.418185 
L 302.596364 200.029182 
L 311.432727 185.241703 
L 322.036364 167.044189 
L 334.407273 145.305388 
L 348.545455 119.96486 
L 367.985455 84.600268 
L 392.727273 39.272727 
L 392.727273 39.272727 
" style="fill:none;stroke:#008000;stroke-linecap:square;stroke-width:1.5;"/>
   </g>
   <g id="line2d_2">
    <path clip-path="url(#pfd22ada207)" d="M 39.272727 392.727273 
L 58.712727 389.391958 
L 69.316364 387.3736 
L 78.152727 385.506317 
L 86.989091 383.422994 
L 95.825455 381.081935 
L 102.894545 378.99726 
L 109.963636 376.704 
L 117.032727 374.184623 
L 124.101818 371.422729 
L 131.170909 368.403049 
L 138.24 365.111445 
L 145.309091 361.534909 
L 152.378182 357.661566 
L 159.447273 353.48067 
L 166.516364 348.982607 
L 173.585455 344.158895 
L 180.654545 339.002182 
L 187.723636 333.506246 
L 194.792727 327.665999 
L 201.861818 321.477481 
L 208.930909 314.937865 
L 216 308.045455 
L 223.069091 300.799683 
L 230.138182 293.201118 
L 237.207273 285.251454 
L 244.276364 276.953519 
L 251.345455 268.311273 
L 258.414545 259.329804 
L 265.483636 250.015334 
L 272.552727 240.375215 
L 279.621818 230.417929 
L 288.458182 217.540061 
L 297.294545 204.202986 
L 306.130909 190.43073 
L 314.967273 176.250078 
L 323.803636 161.690575 
L 334.407273 143.764775 
L 345.010909 125.401176 
L 357.381818 103.513091 
L 371.52 78.029301 
L 392.727273 39.272727 
L 392.727273 39.272727 
" style="fill:none;stroke:#ff0000;stroke-linecap:square;stroke-width:1.5;"/>
   </g>
   <g id="line2d_3">
    <path clip-path="url(#pfd22ada207)" d="M 39.272727 392.727273 
L 46.341818 391.431273 
L 53.410909 389.899636 
L 60.48 388.132364 
L 67.549091 386.129455 
L 74.618182 383.890909 
L 81.687273 381.416727 
L 88.756364 378.706909 
L 95.825455 375.761455 
L 102.894545 372.580364 
L 109.963636 369.163636 
L 117.032727 365.511273 
L 124.101818 361.623273 
L 131.170909 357.499636 
L 138.24 353.140364 
L 145.309091 348.545455 
L 152.378182 343.714909 
L 159.447273 338.648727 
L 166.516364 333.346909 
L 173.585455 327.809455 
L 180.654545 322.036364 
L 187.723636 316.027636 
L 196.56 308.185364 
L 205.396364 299.974909 
L 214.232727 291.396273 
L 223.069091 282.449455 
L 231.905455 273.134455 
L 240.741818 263.451273 
L 249.578182 253.399909 
L 258.414545 242.980364 
L 267.250909 232.192636 
L 276.087273 221.036727 
L 284.923636 209.512636 
L 293.76 197.620364 
L 302.596364 185.359909 
L 311.432727 172.731273 
L 320.269091 159.734455 
L 329.105455 146.369455 
L 337.941818 132.636273 
L 346.778182 118.534909 
L 355.614545 104.065364 
L 364.450909 89.227636 
L 373.287273 74.021727 
L 383.890909 55.288636 
L 392.727273 39.272727 
L 392.727273 39.272727 
" style="fill:none;stroke:#0000ff;stroke-linecap:square;stroke-width:1.5;"/>
   </g>
   <g id="line2d_4">
    <path clip-path="url(#pfd22ada207)" d="M 21.6 392.727273 
L 410.4 392.727273 
" style="fill:none;stroke:#000000;stroke-linecap:square;stroke-width:1.5;"/>
   </g>
   <g id="line2d_5">
    <path clip-path="url(#pfd22ada207)" d="M 39.272727 410.4 
L 39.272727 21.6 
" style="fill:none;stroke:#000000;stroke-linecap:square;stroke-width:1.5;"/>
   </g>
   <g id="legend_1">
    <g id="patch_2">
     <path d="M 344.410938 239.517188 
L 403.4 239.517188 
Q 405.4 239.517188 405.4 237.517188 
L 405.4 194.482812 
Q 405.4 192.482812 403.4 192.482812 
L 344.410938 192.482812 
Q 342.410938 192.482812 342.410938 194.482812 
L 342.410938 237.517188 
Q 342.410938 239.517188 344.410938 239.517188 
z
" style="fill:#ffffff;opacity:0.8;stroke:#cccccc;stroke-linejoin:miter;"/>
    </g>
    <g id="line2d_6">
     <path d="M 346.410938 200.58125 
L 366.410938 200.58125 
" style="fill:none;stroke:#008000;stroke-linecap:square;stroke-width:1.5;"/>
    </g>
    <g id="line2d_7"/>
    <g id="text_1">
     <!-- ao=6 -->
     <defs>
      <path d="M 34.28125 27.484375 
Q 23.390625 27.484375 19.1875 25 
Q 14.984375 22.515625 14.984375 16.5 
Q 14.984375 11.71875 18.140625 8.90625 
Q 21.296875 6.109375 26.703125 6.109375 
Q 34.1875 6.109375 38.703125 11.40625 
Q 43.21875 16.703125 43.21875 25.484375 
L 43.21875 27.484375 
z
M 52.203125 31.203125 
L 52.203125 0 
L 43.21875 0 
L 43.21875 8.296875 
Q 40.140625 3.328125 35.546875 0.953125 
Q 30.953125 -1.421875 24.3125 -1.421875 
Q 15.921875 -1.421875 10.953125 3.296875 
Q 6 8.015625 6 15.921875 
Q 6 25.140625 12.171875 29.828125 
Q 18.359375 34.515625 30.609375 34.515625 
L 43.21875 34.515625 
L 43.21875 35.40625 
Q 43.21875 41.609375 39.140625 45 
Q 35.0625 48.390625 27.6875 48.390625 
Q 23 48.390625 18.546875 47.265625 
Q 14.109375 46.140625 10.015625 43.890625 
L 10.015625 52.203125 
Q 14.9375 54.109375 19.578125 55.046875 
Q 24.21875 56 28.609375 56 
Q 40.484375 56 46.34375 49.84375 
Q 52.203125 43.703125 52.203125 31.203125 
z
" id="DejaVuSans-61"/>
      <path d="M 30.609375 48.390625 
Q 23.390625 48.390625 19.1875 42.75 
Q 14.984375 37.109375 14.984375 27.296875 
Q 14.984375 17.484375 19.15625 11.84375 
Q 23.34375 6.203125 30.609375 6.203125 
Q 37.796875 6.203125 41.984375 11.859375 
Q 46.1875 17.53125 46.1875 27.296875 
Q 46.1875 37.015625 41.984375 42.703125 
Q 37.796875 48.390625 30.609375 48.390625 
z
M 30.609375 56 
Q 42.328125 56 49.015625 48.375 
Q 55.71875 40.765625 55.71875 27.296875 
Q 55.71875 13.875 49.015625 6.21875 
Q 42.328125 -1.421875 30.609375 -1.421875 
Q 18.84375 -1.421875 12.171875 6.21875 
Q 5.515625 13.875 5.515625 27.296875 
Q 5.515625 40.765625 12.171875 48.375 
Q 18.84375 56 30.609375 56 
z
" id="DejaVuSans-6f"/>
      <path d="M 10.59375 45.40625 
L 73.1875 45.40625 
L 73.1875 37.203125 
L 10.59375 37.203125 
z
M 10.59375 25.484375 
L 73.1875 25.484375 
L 73.1875 17.1875 
L 10.59375 17.1875 
z
" id="DejaVuSans-3d"/>
      <path d="M 33.015625 40.375 
Q 26.375 40.375 22.484375 35.828125 
Q 18.609375 31.296875 18.609375 23.390625 
Q 18.609375 15.53125 22.484375 10.953125 
Q 26.375 6.390625 33.015625 6.390625 
Q 39.65625 6.390625 43.53125 10.953125 
Q 47.40625 15.53125 47.40625 23.390625 
Q 47.40625 31.296875 43.53125 35.828125 
Q 39.65625 40.375 33.015625 40.375 
z
M 52.59375 71.296875 
L 52.59375 62.3125 
Q 48.875 64.0625 45.09375 64.984375 
Q 41.3125 65.921875 37.59375 65.921875 
Q 27.828125 65.921875 22.671875 59.328125 
Q 17.53125 52.734375 16.796875 39.40625 
Q 19.671875 43.65625 24.015625 45.921875 
Q 28.375 48.1875 33.59375 48.1875 
Q 44.578125 48.1875 50.953125 41.515625 
Q 57.328125 34.859375 57.328125 23.390625 
Q 57.328125 12.15625 50.6875 5.359375 
Q 44.046875 -1.421875 33.015625 -1.421875 
Q 20.359375 -1.421875 13.671875 8.265625 
Q 6.984375 17.96875 6.984375 36.375 
Q 6.984375 53.65625 15.1875 63.9375 
Q 23.390625 74.21875 37.203125 74.21875 
Q 40.921875 74.21875 44.703125 73.484375 
Q 48.484375 72.75 52.59375 71.296875 
z
" id="DejaVuSans-36"/>
     </defs>
     <g transform="translate(374.410938 204.08125)scale(0.1 -0.1)">
      <use xlink:href="#DejaVuSans-61"/>
      <use x="61.279297" xlink:href="#DejaVuSans-6f"/>
      <use x="122.460938" xlink:href="#DejaVuSans-3d"/>
      <use x="206.25" xlink:href="#DejaVuSans-36"/>
     </g>
    </g>
    <g id="line2d_8">
     <path d="M 346.410938 215.259375 
L 366.410938 215.259375 
" style="fill:none;stroke:#ff0000;stroke-linecap:square;stroke-width:1.5;"/>
    </g>
    <g id="line2d_9"/>
    <g id="text_2">
     <!-- ao=4 -->
     <defs>
      <path d="M 37.796875 64.3125 
L 12.890625 25.390625 
L 37.796875 25.390625 
z
M 35.203125 72.90625 
L 47.609375 72.90625 
L 47.609375 25.390625 
L 58.015625 25.390625 
L 58.015625 17.1875 
L 47.609375 17.1875 
L 47.609375 0 
L 37.796875 0 
L 37.796875 17.1875 
L 4.890625 17.1875 
L 4.890625 26.703125 
z
" id="DejaVuSans-34"/>
     </defs>
     <g transform="translate(374.410938 218.759375)scale(0.1 -0.1)">
      <use xlink:href="#DejaVuSans-61"/>
      <use x="61.279297" xlink:href="#DejaVuSans-6f"/>
      <use x="122.460938" xlink:href="#DejaVuSans-3d"/>
      <use x="206.25" xlink:href="#DejaVuSans-34"/>
     </g>
    </g>
    <g id="line2d_10">
     <path d="M 346.410938 229.9375 
L 366.410938 229.9375 
" style="fill:none;stroke:#0000ff;stroke-linecap:square;stroke-width:1.5;"/>
    </g>
    <g id="line2d_11"/>
    <g id="text_3">
     <!-- ao=2 -->
     <defs>
      <path d="M 19.1875 8.296875 
L 53.609375 8.296875 
L 53.609375 0 
L 7.328125 0 
L 7.328125 8.296875 
Q 12.9375 14.109375 22.625 23.890625 
Q 32.328125 33.6875 34.8125 36.53125 
Q 39.546875 41.84375 41.421875 45.53125 
Q 43.3125 49.21875 43.3125 52.78125 
Q 43.3125 58.59375 39.234375 62.25 
Q 35.15625 65.921875 28.609375 65.921875 
Q 23.96875 65.921875 18.8125 64.3125 
Q 13.671875 62.703125 7.8125 59.421875 
L 7.8125 69.390625 
Q 13.765625 71.78125 18.9375 73 
Q 24.125 74.21875 28.421875 74.21875 
Q 39.75 74.21875 46.484375 68.546875 
Q 53.21875 62.890625 53.21875 53.421875 
Q 53.21875 48.921875 51.53125 44.890625 
Q 49.859375 40.875 45.40625 35.40625 
Q 44.1875 33.984375 37.640625 27.21875 
Q 31.109375 20.453125 19.1875 8.296875 
z
" id="DejaVuSans-32"/>
     </defs>
     <g transform="translate(374.410938 233.4375)scale(0.1 -0.1)">
      <use xlink:href="#DejaVuSans-61"/>
      <use x="61.279297" xlink:href="#DejaVuSans-6f"/>
      <use x="122.460938" xlink:href="#DejaVuSans-3d"/>
      <use x="206.25" xlink:href="#DejaVuSans-32"/>
     </g>
    </g>
   </g>
  </g>
 </g>
 <defs>
  <clipPath id="pfd22ada207">
   <rect height="388.8" width="388.8" x="21.6" y="21.6"/>
  </clipPath>
 </defs>
</svg>
